<svg width="45" height="45" viewBox="0 0 45 45" fill="none" xmlns="http://www.w3.org/2000/svg">
<g clip-path="url(#clip0_920_20596)">
<path d="M38.4079 38.4087C47.1944 29.6221 47.1944 15.3764 38.4079 6.58988C29.6213 -2.19664 15.3756 -2.19664 6.58908 6.58988C-2.19744 15.3764 -2.19744 29.6221 6.58908 38.4087C15.3756 47.1952 29.6213 47.1952 38.4079 38.4087Z" fill="#1877F2"/>
<path fill-rule="evenodd" clip-rule="evenodd" d="M27.2743 12.3167C28.2264 12.2849 29.1785 12.3095 30.1334 12.308H30.5264V7.35394C30.0179 7.30337 29.4847 7.22969 28.9531 7.20368C27.9764 7.16034 26.9983 7.11122 26.0202 7.13434C24.5278 7.16612 23.1148 7.52876 21.881 8.41439C20.4665 9.43295 19.6893 10.8618 19.3931 12.5507C19.2703 13.2471 19.2385 13.9681 19.2212 14.6774C19.1937 15.7899 19.2154 16.9009 19.2168 18.0134V18.4295H14.4766V23.9629H19.1894V37.8731H24.9482V23.986H29.6451C29.8864 22.1469 30.1204 20.3236 30.3675 18.4266C29.9904 18.4266 29.6509 18.4266 29.3114 18.4266C27.9764 18.4324 24.9092 18.4266 24.9092 18.4266C24.9092 18.4266 24.9222 15.6844 24.9554 14.494C25.0017 12.8643 25.9682 12.3658 27.2743 12.3196V12.3167Z" fill="white"/>
</g>
<defs>
<clipPath id="clip0_920_20596">
<rect width="45" height="45" fill="white"/>
</clipPath>
</defs>
</svg>
