<svg width="45" height="45" viewBox="0 0 45 45" fill="none" xmlns="http://www.w3.org/2000/svg">
<g clip-path="url(#clip0_920_20599)">
<path d="M38.4079 38.4087C47.1944 29.6221 47.1944 15.3764 38.4079 6.58988C29.6213 -2.19664 15.3756 -2.19664 6.58908 6.58988C-2.19744 15.3764 -2.19744 29.6221 6.58908 38.4087C15.3756 47.1952 29.6213 47.1952 38.4079 38.4087Z" fill="url(#paint0_linear_920_20599)"/>
<path d="M36.1321 15.5976C35.9457 13.7743 35.2464 12.1605 33.8912 10.8675C32.4653 9.5065 30.7214 8.90548 28.81 8.80435C25.5521 8.62664 17.8183 8.51395 15.1021 8.95749C11.9988 9.46316 9.96455 11.2734 9.10636 14.3392C8.4461 16.6971 8.57758 27.566 8.96333 29.8964C9.48922 33.0836 11.3732 35.1279 14.5314 35.9413C16.7174 36.5062 27.4621 36.434 29.8734 36.0424C33.0634 35.5267 35.115 33.6543 35.9443 30.5003C36.5771 28.0804 36.356 17.7807 36.135 15.5962L36.1321 15.5976ZM33.5806 29.4457C33.2093 31.8671 31.6027 33.3667 29.1698 33.6326C26.9347 33.8782 16.95 34.0126 14.8767 33.4332C12.8931 32.8784 11.7589 31.5146 11.4295 29.5179C11.1146 27.6108 11.0366 18.0826 11.4252 15.5312C11.7907 13.1314 13.3973 11.6332 15.8173 11.363C18.2719 11.0885 27.1081 11.0582 29.4602 11.4179C31.8758 11.7892 33.3726 13.3987 33.6384 15.836C33.8855 18.1101 33.9563 27.0011 33.5821 29.4457H33.5806ZM22.5007 15.3939C18.5753 15.3925 15.3925 18.5709 15.3911 22.4964C15.3896 26.4218 18.5695 29.6046 22.4935 29.606C26.4189 29.6075 29.6017 26.4276 29.6032 22.5036C29.6046 18.5782 26.4247 15.3954 22.5007 15.3939ZM22.4516 27.0907C19.9132 27.0676 17.8746 24.9915 17.8977 22.4545C17.9209 19.916 19.997 17.8775 22.534 17.9006C25.0724 17.9237 27.111 19.9998 27.0879 22.5368C27.0648 25.0753 24.9886 27.1138 22.4516 27.0907ZM31.5478 15.1252C31.545 16.0441 30.7995 16.7867 29.8806 16.7852C28.9617 16.7823 28.2191 16.0368 28.2206 15.118C28.222 14.1991 28.9689 13.4565 29.8878 13.4579C30.8067 13.4608 31.5493 14.2063 31.5478 15.1252Z" fill="white"/>
</g>
<defs>
<linearGradient id="paint0_linear_920_20599" x1="6.04439" y1="37.8366" x2="38.966" y2="7.15813" gradientUnits="userSpaceOnUse">
<stop offset="0.09" stop-color="#F3C55A"/>
<stop offset="0.15" stop-color="#F4B55C"/>
<stop offset="0.25" stop-color="#F68E64"/>
<stop offset="0.38" stop-color="#FA4E70"/>
<stop offset="0.39" stop-color="#FB4C71"/>
<stop offset="0.7" stop-color="#AD44EB"/>
<stop offset="0.75" stop-color="#A745EC"/>
<stop offset="0.81" stop-color="#9848EF"/>
<stop offset="0.87" stop-color="#804DF4"/>
<stop offset="0.92" stop-color="#6853FA"/>
</linearGradient>
<clipPath id="clip0_920_20599">
<rect width="45" height="45" fill="white"/>
</clipPath>
</defs>
</svg>
