<svg width="45" height="45" viewBox="0 0 45 45" fill="none" xmlns="http://www.w3.org/2000/svg">
<g clip-path="url(#clip0_920_20587)">
<path d="M38.4079 38.4087C47.1944 29.6221 47.1944 15.3764 38.4079 6.58988C29.6213 -2.19664 15.3756 -2.19664 6.58908 6.58988C-2.19744 15.3764 -2.19744 29.6221 6.58908 38.4087C15.3756 47.1952 29.6213 47.1952 38.4079 38.4087Z" fill="black"/>
<path fill-rule="evenodd" clip-rule="evenodd" d="M27.9965 18.9178C29.6594 20.1054 31.698 20.8061 33.8984 20.8061V16.5729C33.4823 16.5729 33.0662 16.5296 32.6588 16.4429V19.7745C30.4584 19.7745 28.4213 19.0752 26.7569 17.8877V26.5244C26.7569 30.8457 23.2519 34.3478 18.9292 34.3478C17.3168 34.3478 15.8172 33.8609 14.5718 33.0244C15.9934 34.4764 17.9756 35.3779 20.1688 35.3779C24.4915 35.3779 27.9965 31.8758 27.9965 27.5546V18.9178ZM29.5251 14.6471C28.6755 13.7195 28.1164 12.5189 27.9965 11.1926V10.6479H26.8219C27.1181 12.334 28.1265 13.773 29.5251 14.6456V14.6471ZM17.3053 29.7087C16.8299 29.086 16.5742 28.3246 16.5742 27.5416C16.5742 25.5651 18.1779 23.9629 20.1543 23.9629C20.5228 23.9629 20.8897 24.0192 21.2408 24.1305V19.8034C20.8305 19.7471 20.4158 19.7239 20.0026 19.7326V23.1004C19.6516 22.9891 19.2846 22.9328 18.9162 22.9328C16.9383 22.9328 15.3361 24.535 15.3361 26.5114C15.3361 27.9085 16.1379 29.1192 17.3053 29.7087Z" fill="#EE1D52"/>
<path fill-rule="evenodd" clip-rule="evenodd" d="M26.7571 17.8874C28.4215 19.075 30.4586 19.7743 32.659 19.7743V16.4427C31.4309 16.1812 30.343 15.5397 29.5253 14.6468C28.1253 13.7742 27.1169 12.3338 26.8222 10.6492H23.7376V27.5543C23.7304 29.525 22.1296 31.1215 20.1575 31.1215C18.9944 31.1215 17.9614 30.5681 17.307 29.7099C16.1381 29.1205 15.3377 27.9097 15.3377 26.5127C15.3377 24.5362 16.94 22.934 18.9179 22.934C19.2964 22.934 19.6619 22.9932 20.0043 23.1016V19.7338C15.7567 19.822 12.3413 23.2894 12.3413 27.5558C12.3413 29.6854 13.1923 31.6156 14.572 33.0256C15.8174 33.8622 17.3171 34.349 18.9294 34.349C23.2522 34.349 26.7571 30.8469 26.7571 26.5257V17.8874Z" fill="white"/>
<path fill-rule="evenodd" clip-rule="evenodd" d="M32.6589 16.4442V15.5427C31.5507 15.5441 30.4657 15.2335 29.5252 14.6484C30.3574 15.5586 31.4525 16.187 32.6589 16.4442ZM26.822 10.6507C26.7931 10.4904 26.7715 10.3271 26.757 10.1653V9.62061H22.4979V26.5258C22.4906 28.4964 20.8913 30.0929 18.9177 30.0929C18.3384 30.0929 17.7908 29.9556 17.3068 29.7115C17.9613 30.5697 18.9943 31.123 20.1574 31.123C22.1309 31.123 23.7317 29.528 23.7375 27.5559V10.6507H26.822ZM20.0042 19.7354V18.7761C19.6488 18.7269 19.289 18.7024 18.9307 18.7038C14.608 18.7038 11.103 22.2059 11.103 26.5272C11.103 29.2361 12.4799 31.6229 14.5733 33.0272C13.1936 31.6171 12.3426 29.6869 12.3426 27.5573C12.3426 23.2924 15.7581 19.8235 20.0057 19.7354H20.0042Z" fill="#69C9D0"/>
</g>
<defs>
<clipPath id="clip0_920_20587">
<rect width="45" height="45" fill="white"/>
</clipPath>
</defs>
</svg>
