<svg width="45" height="45" viewBox="0 0 45 45" fill="none" xmlns="http://www.w3.org/2000/svg">
<g clip-path="url(#clip0_920_20593)">
<path d="M38.4094 38.4087C47.1962 29.6221 47.1962 15.3764 38.4094 6.58988C29.6226 -2.19664 15.3764 -2.19664 6.58959 6.58988C-2.19721 15.3764 -2.19721 29.6221 6.58959 38.4087C15.3764 47.1952 29.6226 47.1952 38.4094 38.4087Z" fill="#FF0000"/>
<path fill-rule="evenodd" clip-rule="evenodd" d="M11.258 31.8411C10.1888 31.49 9.46933 30.7893 9.08357 29.7303C8.143 27.1427 7.86415 16.3171 9.67594 14.1847C10.2958 13.4565 11.0919 13.0303 12.0425 12.9277C16.9245 12.4018 32.0156 12.4769 33.7551 13.104C34.7737 13.4695 35.4961 14.137 35.8905 15.157C36.9207 17.8312 36.9554 27.5646 35.7547 30.1421C35.4297 30.8413 34.898 31.334 34.2232 31.6879C32.4028 32.6429 13.6549 32.6314 11.2595 31.8411H11.258ZM19.0137 26.7671C21.9496 25.2443 24.8594 23.7345 27.8068 22.2074C24.8551 20.6673 21.9453 19.1489 19.0137 17.6189V26.7671Z" fill="white"/>
</g>
<defs>
<clipPath id="clip0_920_20593">
<rect width="45" height="45" fill="white"/>
</clipPath>
</defs>
</svg>
